<?xml version="1.0" encoding="utf-8" ?>
<svg baseProfile="full" fill="#744b3e" height="16" version="1.1" viewBox="0 0 512 512" width="16" xmlns="http://www.w3.org/2000/svg" xmlns:ev="http://www.w3.org/2001/xml-events" xmlns:xlink="http://www.w3.org/1999/xlink"><defs /><path d="M 474.655,74.503 C 449.169,45.72 413.943,29.87 375.467,29.87 C 345.24199999999996,29.87 316.967,42.169 293.7,65.436 C 278.178,80.959 265.37,100.696 256.001,123.367 C 246.62999999999997,100.696 233.82399999999998,80.96000000000001 218.30199999999996,65.436 C 195.03499999999997,42.16900000000001 166.75999999999996,29.870000000000005 136.53499999999997,29.870000000000005 C 98.05799999999996,29.870000000000005 62.83299999999997,45.721000000000004 37.346999999999966,74.504 C 13.612,101.305 0.0,137.911 0.0,174.936 C 0.0,219.394 13.452,263.271 39.981,305.35400000000004 C 60.99,338.67800000000005 90.208,370.939 126.826,401.24300000000005 C 188.87199999999999,452.59100000000007 249.94,480.23800000000006 252.50900000000001,481.38900000000007 C 254.71200000000002,482.37700000000007 257.288,482.37700000000007 259.49,481.38900000000007 C 262.06,480.23800000000006 323.127,452.59100000000007 385.173,401.24300000000005 C 421.791,370.9390000000001 451.009,338.67800000000005 472.01800000000003,305.35400000000004 C 498.548,263.271 512.0,219.394 512.0,174.936 C 512.0,137.911 498.388,101.305 474.655,74.503" /><path d="M 160.959,401.243 C 124.34100000000001,370.939 95.123,338.678 74.114,305.354 C 47.58500000000001,263.27099999999996 34.133,219.39299999999997 34.133,174.93599999999998 C 34.133,137.91099999999997 47.745000000000005,101.30499999999998 71.47800000000001,74.50299999999997 C 92.918,50.28999999999997 121.25300000000001,35.23199999999997 152.616,31.059999999999974 C 147.33,30.273999999999972 141.96300000000002,29.870999999999974 136.53400000000002,29.870999999999974 C 98.05700000000002,29.870999999999974 62.83200000000002,45.72199999999997 37.34600000000002,74.50499999999997 C 13.612,101.305 0.0,137.911 0.0,174.936 C 0.0,219.394 13.452,263.271 39.981,305.35400000000004 C 60.99,338.67800000000005 90.208,370.939 126.826,401.24300000000005 C 188.87199999999999,452.59100000000007 249.94,480.23800000000006 252.50900000000001,481.38900000000007 C 254.71200000000002,482.37700000000007 257.288,482.37700000000007 259.49,481.38900000000007 C 260.17900000000003,481.0810000000001 265.076,478.86500000000007 273.067,474.80100000000004 C 251.254,463.709 206.371,438.825 160.959,401.243" /></svg>